<svg width="70" height="70" viewBox="0 0 70 70" fill="none" xmlns="http://www.w3.org/2000/svg">
<path fill-rule="evenodd" clip-rule="evenodd" d="M35 -0.000488124H34.882C27.0858 -0.000503859 21.0818 -0.000516019 16.4208 0.626127C11.6932 1.26173 8.12344 2.56665 5.3453 5.34476C2.56717 8.12287 1.26223 11.6926 0.626622 16.4202C-2.77375e-05 21.0811 -1.55782e-05 27.0851 1.57434e-07 34.8812V34.9992V35.1172C-1.55782e-05 42.9133 -2.77375e-05 48.9173 0.626622 53.5782C1.26223 58.3058 2.56717 61.8755 5.3453 64.6536C8.12344 67.4318 11.6932 68.7367 16.4208 69.3723C21.0817 69.9989 27.0857 69.9989 34.8818 69.9989H34.8819H35H35.1181H35.1182C42.9143 69.9989 48.9183 69.9989 53.5792 69.3723C58.3067 68.7367 61.8765 67.4318 64.6547 64.6536C67.4328 61.8755 68.7377 58.3058 69.3734 53.5782C70 48.9173 70 42.9134 70 35.1174V35.1173V34.9992C70 34.1708 69.3284 33.4992 68.5 33.4992C67.6716 33.4992 67 34.1708 67 34.9992C67 42.9376 66.9968 48.7404 66.4001 53.1785C65.8092 57.5733 64.6612 60.4045 62.5334 62.5323C60.4055 64.6601 57.5743 65.8082 53.1794 66.399C48.7413 66.9957 42.9384 66.9989 35 66.9989C27.0616 66.9989 21.2586 66.9957 16.8206 66.399C12.4256 65.8082 9.59444 64.6601 7.46662 62.5323C5.33879 60.4045 4.19075 57.5733 3.59987 53.1785C3.00319 48.7404 3 42.9376 3 34.9992C3 27.0608 3.00319 21.258 3.59987 16.8199C4.19075 12.4251 5.33879 9.5939 7.46662 7.46609C9.59444 5.33829 12.4256 4.19025 16.8206 3.59938C21.2586 3.0027 27.0616 2.99951 35 2.99951C42.9384 2.99951 48.7413 3.0027 53.1794 3.59938C57.5743 4.19025 60.4055 5.33829 62.5334 7.46609C65.3674 10.3001 66.4531 14.3684 66.8173 21.674C66.8585 22.5014 67.5627 23.1387 68.3901 23.0975C69.2175 23.0562 69.8548 22.352 69.8135 21.5246C69.4451 14.1343 68.3447 9.03474 64.6547 5.34476C61.8765 2.56665 58.3067 1.26173 53.5792 0.626127C48.9182 -0.000516019 42.9141 -0.000503859 35.118 -0.000488124H35ZM47.7853 27.6853C48.3711 27.0995 48.3711 26.1497 47.7853 25.5639C47.1995 24.9781 46.2497 24.9781 45.664 25.5639L29.9746 41.2531L24.3353 35.6138C23.7495 35.028 22.7997 35.0281 22.214 35.6138C21.6282 36.1996 21.6282 37.1494 22.214 37.7352L28.914 44.4351C29.4997 45.0209 30.4495 45.0209 31.0353 44.4351L47.7853 27.6853Z" fill="#222831"/>
</svg>
