<svg width="39" height="39" viewBox="0 0 39 39" fill="none" xmlns="http://www.w3.org/2000/svg">
<path d="M37.6987 23.5839L24.4026 36.88L18.3896 37.6987L19.2365 31.6858L32.5045 18.3896L37.6987 23.5839Z" stroke="#00ADB5" stroke-width="2" stroke-linecap="round" stroke-linejoin="round"/>
<path d="M11.6744 37.6986H4.66986C3.69656 37.6986 2.76312 37.3119 2.07488 36.6236C1.38665 35.9354 1 35.0021 1 34.0288V4.66986C1 3.69656 1.38665 2.76312 2.07488 2.07488C2.76312 1.38665 3.69656 1 4.66986 1H34.0288C35.0021 1 35.9354 1.38665 36.6236 2.07488C37.3119 2.76312 37.6986 3.69656 37.6986 4.66986V12.9976" stroke="#00ADB5" stroke-width="2" stroke-linecap="round" stroke-linejoin="round"/>
<path d="M25.0336 13.1238C26.9825 13.1238 28.5624 11.544 28.5624 9.59512C28.5624 7.64628 26.9825 6.06641 25.0336 6.06641C23.0848 6.06641 21.5049 7.64628 21.5049 9.59512C21.5049 11.544 23.0848 13.1238 25.0336 13.1238Z" stroke="#00ADB5" stroke-width="2" stroke-linecap="round" stroke-linejoin="round"/>
<path d="M1 19.8102C2.67749 19.507 4.40538 19.3486 6.17027 19.3486C10.9181 19.3486 15.3982 20.4945 19.3493 22.5247" stroke="#00ADB5" stroke-width="2" stroke-linecap="round" stroke-linejoin="round"/>
</svg>
