<svg width="49" height="47" viewBox="0 0 49 47" fill="none" xmlns="http://www.w3.org/2000/svg">
<path d="M44.8075 23.5007C44.8075 30.886 44.8075 34.5787 42.4342 36.873C40.0608 39.1673 36.241 39.1673 28.6013 39.1673H20.4982C12.8585 39.1673 9.03868 39.1673 6.66534 36.873C4.29199 34.5787 4.29199 30.886 4.29199 23.5007C4.29199 16.1153 4.29199 12.4226 6.66534 10.1283C9.03868 7.83398 12.8585 7.83398 20.4982 7.83398H28.6013C36.241 7.83398 40.0608 7.83398 42.4342 10.1283C43.7574 11.4075 44.3428 13.1213 44.6019 15.6673" stroke="#222831" stroke-width="2" stroke-linecap="round"/>
<path d="M36.7038 15.666L32.3304 19.1892C28.6098 22.1865 26.7495 23.6851 24.5492 23.6851C23.2339 23.6851 22.04 23.1496 20.4976 22.0785L14.2177 17.1348L12.3945 15.666" stroke="#222831" stroke-width="2" stroke-linecap="round"/>
</svg>
