<svg width="23" height="24" viewBox="0 0 23 24" fill="#EEEEEE" xmlns="http://www.w3.org/2000/svg">
<g clip-path="url(#clip0_1248_395)">
<path d="M8.55982 19.4199L8.91108 18.9773L8.55982 19.4199ZM11.75 5.24239L11.3416 5.6328C11.4482 5.74431 11.5957 5.80739 11.75 5.80739C11.9043 5.80739 12.0518 5.74431 12.1584 5.6328L11.75 5.24239ZM14.9402 19.4199L15.2914 19.8624L14.9402 19.4199ZM6.36071 16.9646C6.12044 16.7655 5.76427 16.7989 5.56517 17.0392C5.36606 17.2794 5.39944 17.6356 5.6397 17.8347L6.36071 16.9646ZM1.80352 13.495C1.95246 13.7692 2.29549 13.8708 2.56969 13.7218C2.84389 13.5729 2.94543 13.2299 2.79648 12.9557L1.80352 13.495ZM1.815 9.0869C1.815 6.72557 3.14052 4.7359 4.96441 3.89647C6.75161 3.07393 9.12337 3.31233 11.3416 5.6328L12.1584 4.85197C9.6518 2.22981 6.77356 1.81989 4.49197 2.86997C2.24707 3.90317 0.685 6.30709 0.685 9.0869H1.815ZM8.20856 19.8624C8.74843 20.2909 9.31386 20.7362 9.88346 21.0713C10.4528 21.4063 11.0806 21.6649 11.75 21.6649V20.5349C11.3694 20.5349 10.9472 20.3861 10.4565 20.0974C9.96605 19.8089 9.46138 19.4141 8.91108 18.9773L8.20856 19.8624ZM15.2914 19.8624C16.8027 18.6629 18.6926 17.3188 20.1774 15.6355C21.6814 13.9302 22.815 11.8325 22.815 9.0869H21.685C21.685 11.4824 20.7084 13.3251 19.3299 14.888C17.9321 16.4728 16.1671 17.7247 14.5889 18.9773L15.2914 19.8624ZM22.815 9.0869C22.815 6.30709 21.2529 3.90317 19.008 2.86997C16.7264 1.81989 13.8482 2.22981 11.3416 4.85197L12.1584 5.6328C14.3766 3.31233 16.7484 3.07393 18.5356 3.89647C20.3595 4.7359 21.685 6.72557 21.685 9.0869H22.815ZM14.5889 18.9773C14.0386 19.4141 13.5339 19.8089 13.0435 20.0974C12.5528 20.3861 12.1306 20.5349 11.75 20.5349V21.6649C12.4194 21.6649 13.0472 21.4063 13.6165 21.0713C14.1861 20.7362 14.7516 20.2909 15.2914 19.8624L14.5889 18.9773ZM8.91108 18.9773C8.08329 18.3203 7.22386 17.6799 6.36071 16.9646L5.6397 17.8347C6.51006 18.5559 7.42081 19.2371 8.20856 19.8624L8.91108 18.9773ZM2.79648 12.9557C2.19039 11.8399 1.815 10.5732 1.815 9.0869H0.685C0.685 10.7762 1.1147 12.227 1.80352 13.495L2.79648 12.9557Z" />
</g>
<defs>
<clipPath id="clip0_1248_395">
<rect width="22.5" height="22.5" fill="white" transform="translate(0.5 0.75)"/>
</clipPath>
</defs>
</svg>
