<svg width="40" height="30" viewBox="0 0 40 30" fill="none" xmlns="http://www.w3.org/2000/svg">
<path fill-rule="evenodd" clip-rule="evenodd" d="M20.2548 26.8081H25.8614C34.0397 26.8081 40.0015 21.1784 40.0015 13.404C40.0015 5.6297 34.0397 0 25.8614 0H19.7467V3.19141H14.1402C5.9618 3.19141 0 8.82111 0 16.5955C0 24.3698 5.9618 29.9995 14.1402 29.9995H20.2548V26.8081ZM19.7467 24.0634H14.1402C9.74524 24.0634 6.57326 20.6933 6.57326 16.5955C6.57326 12.4976 9.74524 9.12749 14.1402 9.12749H20.2548V5.93608H25.8614C30.2563 5.93608 33.4283 9.30624 33.4283 13.404C33.4283 17.5019 30.2563 20.872 25.8614 20.872H19.7467V24.0634Z" fill="#222831"/>
</svg>
