<svg width="36" height="42" viewBox="0 0 36 42" fill="none" xmlns="http://www.w3.org/2000/svg">
<path d="M1 20.9999C1 24.0681 3.4873 26.5554 6.55554 26.5554C9.62378 26.5554 12.1111 24.0681 12.1111 20.9999C12.1111 17.9316 9.62378 15.4443 6.55554 15.4443" stroke-width="2" stroke-linecap="round"/>
<path d="M23.2205 8.78125L12.1094 16.559" stroke-width="2" stroke-linecap="round"/>
<path d="M23.2205 33.2207L12.1094 25.4429" stroke-width="2" stroke-linecap="round"/>
<path d="M28.7762 41.0007C31.8445 41.0007 34.3318 38.5134 34.3318 35.4452C34.3318 32.3769 31.8445 29.8896 28.7762 29.8896C25.708 29.8896 23.2207 32.3769 23.2207 35.4452" stroke-width="2" stroke-linecap="round"/>
<path d="M33.5884 9.33521C32.0543 11.9924 28.6566 12.9028 25.9994 11.3687C23.3422 9.83456 22.4318 6.43685 23.9659 3.77967C25.5001 1.1225 28.8978 0.212086 31.5549 1.74621" stroke-width="2" stroke-linecap="round"/>
</svg>
