<svg width="111" height="71" viewBox="0 0 111 71" fill="#222830" xmlns="http://www.w3.org/2000/svg">
<path d="M7.904 16.48C6.51734 16.48 5.22667 16.16 4.032 15.52C2.83733 14.8587 1.86667 13.92 1.12 12.704C0.373336 11.4667 0 9.984 0 8.256C0 6.50667 0.373336 5.024 1.12 3.808C1.86667 2.57066 2.83733 1.632 4.032 0.992001C5.22667 0.330667 6.51734 0 7.904 0C9.29067 0 10.5813 0.330667 11.776 0.992001C12.9707 1.632 13.9413 2.57066 14.688 3.808C15.4347 5.024 15.808 6.50667 15.808 8.256C15.808 9.984 15.4347 11.4667 14.688 12.704C13.9413 13.92 12.9707 14.8587 11.776 15.52C10.5813 16.16 9.29067 16.48 7.904 16.48ZM7.904 13.472C8.75734 13.472 9.49334 13.2587 10.112 12.832C10.7307 12.4053 11.2 11.7973 11.52 11.008C11.84 10.2187 12 9.30133 12 8.256C12 7.21067 11.84 6.29333 11.52 5.504C11.2 4.71466 10.7307 4.10667 10.112 3.68C9.49334 3.232 8.75734 3.008 7.904 3.008C7.05067 3.008 6.31467 3.232 5.696 3.68C5.09867 4.10667 4.62934 4.71466 4.288 5.504C3.968 6.29333 3.808 7.21067 3.808 8.256C3.808 9.30133 3.968 10.2187 4.288 11.008C4.62934 11.7973 5.09867 12.4053 5.696 12.832C6.31467 13.2587 7.05067 13.472 7.904 13.472Z"/>
<path d="M39.904 16.48C38.5173 16.48 37.2267 16.16 36.032 15.52C34.8373 14.8587 33.8667 13.92 33.12 12.704C32.3733 11.4667 32 9.984 32 8.256C32 6.50667 32.3733 5.024 33.12 3.808C33.8667 2.57066 34.8373 1.632 36.032 0.992001C37.2267 0.330667 38.5173 0 39.904 0C41.2907 0 42.5813 0.330667 43.776 0.992001C44.9707 1.632 45.9413 2.57066 46.688 3.808C47.4347 5.024 47.808 6.50667 47.808 8.256C47.808 9.984 47.4347 11.4667 46.688 12.704C45.9413 13.92 44.9707 14.8587 43.776 15.52C42.5813 16.16 41.2907 16.48 39.904 16.48ZM39.904 13.472C40.7573 13.472 41.4933 13.2587 42.112 12.832C42.7307 12.4053 43.2 11.7973 43.52 11.008C43.84 10.2187 44 9.30133 44 8.256C44 7.21067 43.84 6.29333 43.52 5.504C43.2 4.71466 42.7307 4.10667 42.112 3.68C41.4933 3.232 40.7573 3.008 39.904 3.008C39.0507 3.008 38.3147 3.232 37.696 3.68C37.0987 4.10667 36.6293 4.71466 36.288 5.504C35.968 6.29333 35.808 7.21067 35.808 8.256C35.808 9.30133 35.968 10.2187 36.288 11.008C36.6293 11.7973 37.0987 12.4053 37.696 12.832C38.3147 13.2587 39.0507 13.472 39.904 13.472Z"/>
<path d="M5.99973 21L9.13573 21L9.13573 26.056L23.7917 26.056L23.7917 21L26.9277 21L26.9277 34.824L23.7917 34.824L23.7917 29.768L9.13573 29.768L9.13573 34.824L5.99973 34.824L5.99973 21Z"/>
<path d="M37.9999 60.6801L50.7999 60.6801L50.7999 67.4961L53.7119 67.4961L53.7119 57.0001L37.9999 57.0001L37.9999 60.6801Z"/>
<path d="M61.9999 52.6801L74.7999 52.6801L74.7999 59.4961L77.7119 59.4961L77.7119 49.0001L61.9999 49.0001L61.9999 52.6801Z"/>
<path d="M105.816 34.9999L96.816 66.7999H70V70.7119H100.496L110.496 34.9999H105.816Z"/>
</svg>
