<svg width="82" height="83" viewBox="0 0 82 83" fill="none" stroke='#000' xmlns="http://www.w3.org/2000/svg">
<path d="M4.67383 10.7895C4.67383 13.1206 5.59988 15.3563 7.24824 17.0047C8.8966 18.653 11.1322 19.5791 13.4634 19.5791C15.7945 19.5791 18.0302 18.653 19.6785 17.0047C21.3269 15.3563 22.2529 13.1206 22.2529 10.7895C22.2529 8.4584 21.3269 6.22276 19.6785 4.5744C18.0302 2.92604 15.7945 2 13.4634 2C11.1322 2 8.8966 2.92604 7.24824 4.5744C5.59988 6.22276 4.67383 8.4584 4.67383 10.7895Z" stroke-width="3" stroke-miterlimit="10"/>
<path d="M39.0489 33.4428H39.0203L24.1683 33.5287L13.2745 24.7499C13.1707 24.664 13.0526 24.6068 12.9416 24.5316C12.773 24.4027 12.5974 24.2833 12.4156 24.1738C12.2275 24.0808 12.0338 23.9995 11.8358 23.9304C11.7034 23.8946 11.5817 23.8302 11.4457 23.7801C11.1815 23.7068 10.9124 23.653 10.6405 23.619C10.5653 23.619 10.4973 23.5833 10.4186 23.5761H10.0607C9.24262 23.5459 8.42877 23.7065 7.68345 24.045C6.93809 24.3835 6.28171 24.8907 5.76614 25.5265L5.71962 25.5695C5.63015 25.6768 5.56931 25.8021 5.49058 25.9274C5.41184 26.0526 5.25795 26.253 5.16133 26.432C5.06867 26.6231 4.98622 26.819 4.91439 27.0189C4.86429 27.1513 4.80345 27.273 4.7605 27.409C4.69 27.6612 4.63854 27.9184 4.60661 28.1784C4.60661 28.2679 4.56367 28.3466 4.55651 28.4325V28.4826L2.02272 54.7761C1.90322 56.0709 2.25788 57.3653 3.02078 58.4186C3.78363 59.4715 4.90287 60.2119 6.17055 60.5021L25.2133 64.8575L26.5017 76.5602C26.6447 77.8769 27.2695 79.0944 28.2558 79.9783C29.2421 80.8619 30.5204 81.3501 31.8448 81.3487C32.0432 81.3497 32.2415 81.3401 32.4389 81.32C33.14 81.2431 33.819 81.0284 34.4373 80.6887C35.0553 80.3495 35.6004 79.8914 36.0416 79.3409C36.4825 78.7905 36.8107 78.1585 37.0076 77.4814C37.2044 76.8039 37.2656 76.0946 37.1879 75.3935L35.4808 59.8973C35.3602 58.7875 34.8964 57.7433 34.1542 56.9094C33.4121 56.0752 32.4284 55.4936 31.3402 55.2449L13.1599 51.0971L14.3087 39.3622L18.9182 43.1056C19.8732 43.875 21.063 44.2945 22.2895 44.2938H22.3217L39.0811 44.1971C40.5048 44.1928 41.8686 43.6231 42.8725 42.6135C43.876 41.6036 44.4375 40.2365 44.4332 38.8128C44.4289 37.3892 43.8592 36.0253 42.8496 35.0218C41.8397 34.0179 40.4725 33.4564 39.0489 33.4607V33.4428Z" stroke-width="3" stroke-linecap="round" stroke-linejoin="round"/>
<path d="M66.0988 32.9531L63.6437 49.0327L50.7207 49.1329" stroke-width="3" stroke-linecap="round" stroke-linejoin="round"/>
<path d="M42.8125 58.6421H80.3004" stroke-width="3" stroke-linecap="round" stroke-linejoin="round"/>
<path d="M51.4634 58.6421L49.9854 80.2652" stroke-width="3" stroke-linecap="round" stroke-linejoin="round"/>
<path d="M71.6533 58.6421L73.1314 80.2652" stroke-width="3" stroke-linecap="round" stroke-linejoin="round"/>
</svg>
